# Made in Blockbench 4.8.3
mtllib model.mtl

o head
v 0.75 0.34375 0.109375
v 0.25 0.34375 0.109375
v 0.25 0.59375 0.109375
v 0.75 0.59375 0.109375
v 0.75 0.34375 0.796875
v 0.75 0.59375 0.796875
v 0.25 0.34375 0.796875
v 0.25 0.59375 0.796875
vt 0.5 0.265625
vt 0.625 0.265625
vt 0.625 0.328125
vt 0.5 0.328125
vt 0.328125 0.265625
vt 0.5 0.265625
vt 0.5 0.328125
vt 0.328125 0.328125
vt 0.796875 0.265625
vt 0.921875 0.265625
vt 0.921875 0.328125
vt 0.796875 0.328125
vt 0.625 0.265625
vt 0.796875 0.265625
vt 0.796875 0.328125
vt 0.625 0.328125
vt 0.625 0.5
vt 0.5 0.5
vt 0.5 0.328125
vt 0.625 0.328125
vt 0.75 0.328125
vt 0.625 0.328125
vt 0.625 0.5
vt 0.75 0.5
vn 0 0 -1
vn 1 0 0
vn 0 0 1
vn -1 0 0
vn 0 1 0
vn 0 -1 0
usemtl m_1
f 1/1/1 2/2/1 3/3/1 4/4/1
f 5/5/2 1/6/2 4/7/2 6/8/2
f 7/9/3 5/10/3 6/11/3 8/12/3
f 2/13/4 7/14/4 8/15/4 3/16/4
f 8/17/5 6/18/5 4/19/5 3/20/5
f 2/21/6 1/22/6 5/23/6 7/24/6
o jaw
v 0.688125 0.32864918565798734 0.11813893529995012
v 0.311875 0.32864918565798734 0.11813893529995012
v 0.311875 0.4452889766375372 0.16645271863604272
v 0.688125 0.4452889766375372 0.16645271863604272
v 0.688125 0.20858225875344044 0.4080061386253664
v 0.688125 0.3252220497329904 0.45631992196145893
v 0.311875 0.20858225875344044 0.4080061386253664
v 0.311875 0.3252220497329904 0.45631992196145893
vt 0.65625 0.546875
vt 0.75 0.546875
vt 0.75 0.578125
vt 0.65625 0.578125
vt 0.578125 0.546875
vt 0.65625 0.546875
vt 0.65625 0.578125
vt 0.578125 0.578125
vt 0.828125 0.546875
vt 0.921875 0.546875
vt 0.921875 0.578125
vt 0.828125 0.578125
vt 0.75 0.546875
vt 0.828125 0.546875
vt 0.828125 0.578125
vt 0.75 0.578125
vt 0.75 0.65625
vt 0.65625 0.65625
vt 0.65625 0.578125
vt 0.75 0.578125
vt 0.84375 0.578125
vt 0.75 0.578125
vt 0.75 0.65625
vt 0.84375 0.65625
vn 0 0.3826834323650902 -0.9238795325112867
vn 1 0 0
vn 0 -0.3826834323650895 0.9238795325112871
vn -1 0 0
vn 0 0.9238795325112868 0.38268343236508945
vn 0 -0.923879532511287 -0.3826834323650897
usemtl m_1
f 9/25/7 10/26/7 11/27/7 12/28/7
f 13/29/8 9/30/8 12/31/8 14/32/8
f 15/33/9 13/34/9 14/35/9 16/36/9
f 10/37/10 15/38/10 16/39/10 11/40/10
f 16/41/11 14/42/11 12/43/11 11/44/11
f 10/45/12 9/46/12 13/47/12 15/48/12
o eye_left
v 0.396875 0.5169453397383286 0.2870334369805895
v 0.20937499999999998 0.5169453397383286 0.2870334369805895
v 0.20937499999999998 0.6324302813022393 0.23919800793495327
v 0.396875 0.6324302813022393 0.23919800793495327
v 0.396875 0.6365339123524191 0.5757457908903666
v 0.396875 0.7520188539163299 0.5279103618447304
v 0.20937499999999998 0.6365339123524191 0.5757457908903666
v 0.20937499999999998 0.7520188539163299 0.5279103618447304
vt 0.828125 0.328125
vt 0.875 0.328125
vt 0.875 0.359375
vt 0.828125 0.359375
vt 0.75 0.328125
vt 0.828125 0.328125
vt 0.828125 0.359375
vt 0.75 0.359375
vt 0.953125 0.328125
vt 1 0.328125
vt 1 0.359375
vt 0.953125 0.359375
vt 0.875 0.328125
vt 0.953125 0.328125
vt 0.953125 0.359375
vt 0.875 0.359375
vt 0.875 0.4375
vt 0.828125 0.4375
vt 0.828125 0.359375
vt 0.875 0.359375
vt 0.921875 0.359375
vt 0.875 0.359375
vt 0.875 0.4375
vt 0.921875 0.4375
vn 0 -0.3826834323650899 -0.9238795325112867
vn 1 0 0
vn 0 0.38268343236508956 0.9238795325112868
vn -1 0 0
vn 0 0.9238795325112868 -0.38268343236509006
vn 0 -0.923879532511287 0.3826834323650897
usemtl m_1
f 17/49/13 18/50/13 19/51/13 20/52/13
f 21/53/14 17/54/14 20/55/14 22/56/14
f 23/57/15 21/58/15 22/59/15 24/60/15
f 18/61/16 23/62/16 24/63/16 19/64/16
f 24/65/17 22/66/17 20/67/17 19/68/17
f 18/69/18 17/70/18 21/71/18 23/72/18
o eyelid_left
v 0.39749999999999996 0.5161287378852808 0.28669518941799815
v 0.20875 0.5161287378852808 0.28669518941799815
v 0.20875 0.5750260580828753 0.2622991206047237
v 0.39749999999999996 0.5750260580828753 0.2622991206047237
v 0.39749999999999996 0.6361956647898277 0.5765623927434143
v 0.39749999999999996 0.6950929849874222 0.5521663239301399
v 0.20875 0.6361956647898277 0.5765623927434143
v 0.20875 0.6950929849874222 0.5521663239301399
vt 0.65625 0.921875
vt 0.703125 0.921875
vt 0.703125 0.9375
vt 0.65625 0.9375
vt 0.578125 0.921875
vt 0.65625 0.921875
vt 0.65625 0.9375
vt 0.578125 0.9375
vt 0.78125 0.921875
vt 0.828125 0.921875
vt 0.828125 0.9375
vt 0.78125 0.9375
vt 0.703125 0.921875
vt 0.78125 0.921875
vt 0.78125 0.9375
vt 0.703125 0.9375
vt 0.703125 1.015625
vt 0.65625 1.015625
vt 0.65625 0.9375
vt 0.703125 0.9375
vt 0.75 0.9375
vt 0.703125 0.9375
vt 0.703125 1.015625
vt 0.75 1.015625
vn 0 -0.3826834323650894 -0.923879532511287
vn 1 0 0
vn 0 0.38268343236508867 0.9238795325112873
vn -1 0 0
vn 0 0.9238795325112868 -0.38268343236508984
vn 0 -0.9238795325112867 0.38268343236508984
usemtl m_1
f 25/73/19 26/74/19 27/75/19 28/76/19
f 29/77/20 25/78/20 28/79/20 30/80/20
f 31/81/21 29/82/21 30/83/21 32/84/21
f 26/85/22 31/86/22 32/87/22 27/88/22
f 32/89/23 30/90/23 28/91/23 27/92/23
f 26/93/24 25/94/24 29/95/24 31/96/24
o eye_right
v 0.790625 0.5169453397383286 0.2870334369805895
v 0.603125 0.5169453397383286 0.2870334369805895
v 0.603125 0.6324302813022393 0.23919800793495327
v 0.790625 0.6324302813022393 0.23919800793495327
v 0.790625 0.6365339123524191 0.5757457908903666
v 0.790625 0.7520188539163299 0.5279103618447304
v 0.603125 0.6365339123524191 0.5757457908903666
v 0.603125 0.7520188539163299 0.5279103618447304
vt 0.828125 0.4375
vt 0.875 0.4375
vt 0.875 0.46875
vt 0.828125 0.46875
vt 0.75 0.4375
vt 0.828125 0.4375
vt 0.828125 0.46875
vt 0.75 0.46875
vt 0.953125 0.4375
vt 1 0.4375
vt 1 0.46875
vt 0.953125 0.46875
vt 0.875 0.4375
vt 0.953125 0.4375
vt 0.953125 0.46875
vt 0.875 0.46875
vt 0.875 0.546875
vt 0.828125 0.546875
vt 0.828125 0.46875
vt 0.875 0.46875
vt 0.921875 0.46875
vt 0.875 0.46875
vt 0.875 0.546875
vt 0.921875 0.546875
vn 0 -0.3826834323650899 -0.9238795325112867
vn 1 0 0
vn 0 0.38268343236508956 0.9238795325112868
vn -1 0 0
vn 0 0.9238795325112868 -0.38268343236509006
vn 0 -0.923879532511287 0.3826834323650897
usemtl m_1
f 33/97/25 34/98/25 35/99/25 36/100/25
f 37/101/26 33/102/26 36/103/26 38/104/26
f 39/105/27 37/106/27 38/107/27 40/108/27
f 34/109/28 39/110/28 40/111/28 35/112/28
f 40/113/29 38/114/29 36/115/29 35/116/29
f 34/117/30 33/118/30 37/119/30 39/120/30
o eyelid_right
v 0.79125 0.5161287378852808 0.28669518941799815
v 0.6025 0.5161287378852808 0.28669518941799815
v 0.6025 0.5750260580828753 0.2622991206047237
v 0.79125 0.5750260580828753 0.2622991206047237
v 0.79125 0.6361956647898277 0.5765623927434143
v 0.79125 0.6950929849874222 0.5521663239301399
v 0.6025 0.6361956647898277 0.5765623927434143
v 0.6025 0.6950929849874222 0.5521663239301399
vt 0.875 0.9375
vt 0.828125 0.9375
vt 0.828125 0.953125
vt 0.875 0.953125
vt 0.953125 0.9375
vt 0.875 0.9375
vt 0.875 0.953125
vt 0.953125 0.953125
vt 1 0.9375
vt 0.953125 0.9375
vt 0.953125 0.953125
vt 1 0.953125
vt 0.828125 0.9375
vt 0.75 0.9375
vt 0.75 0.953125
vt 0.828125 0.953125
vt 0.828125 1.03125
vt 0.875 1.03125
vt 0.875 0.953125
vt 0.828125 0.953125
vt 0.875 0.953125
vt 0.921875 0.953125
vt 0.921875 1.03125
vt 0.875 1.03125
vn 0 -0.3826834323650894 -0.923879532511287
vn 1 0 0
vn 0 0.38268343236508867 0.9238795325112873
vn -1 0 0
vn 0 0.9238795325112868 -0.38268343236508984
vn 0 -0.9238795325112867 0.38268343236508984
usemtl m_1
f 41/121/31 42/122/31 43/123/31 44/124/31
f 45/125/32 41/126/32 44/127/32 46/128/32
f 47/129/33 45/130/33 46/131/33 48/132/33
f 42/133/34 47/134/34 48/135/34 43/136/34
f 48/137/35 46/138/35 44/139/35 43/140/35
f 42/141/36 41/142/36 45/143/36 47/144/36
o flame_left
v 0.4375 0.6102578514267398 0.26536441863419846
v -0.0625 0.6102578514267398 0.26536441863419846
v -0.0625 0.6102578514267398 0.26536441863419846
v 0.4375 0.6102578514267398 0.26536441863419846
v 0.4375 0.9451058547461932 1.0737590095815743
v 0.4375 0.9451058547461932 1.0737590095815743
v -0.0625 0.9451058547461932 1.0737590095815743
v -0.0625 0.9451058547461932 1.0737590095815743
vt 0.125 0
vt 0 0
vt 0 0
vt 0.125 0
vt 0.34375 0
vt 0.125 0
vt 0.125 0
vt 0.34375 0
vt 0.46875 0
vt 0.34375 0
vt 0.34375 0
vt 0.46875 0
vt 0 0
vt -0.21875 0
vt -0.21875 0
vt 0 0
vt 0 0.21875
vt 0.125 0.21875
vt 0.125 0
vt 0 0
vt 0.125 0
vt 0.25 0
vt 0.25 0.21875
vt 0.125 0.21875
vn 0 0 0
vn 0 0 0
vn 0 0 0
vn 0 0 0
vn 0 0.9238795325112868 -0.38268343236508967
vn 0 -0.9238795325112868 0.38268343236508967
usemtl m_1
f 49/145/37 50/146/37 51/147/37 52/148/37
f 53/149/38 49/150/38 52/151/38 54/152/38
f 55/153/39 53/154/39 54/155/39 56/156/39
f 50/157/40 55/158/40 56/159/40 51/160/40
f 56/161/41 54/162/41 52/163/41 51/164/41
f 50/165/42 49/166/42 53/167/42 55/168/42
o flame_right
v 1.0625 0.6102578514267398 0.26536441863419846
v 0.5625 0.6102578514267398 0.26536441863419846
v 0.5625 0.6102578514267398 0.26536441863419846
v 1.0625 0.6102578514267398 0.26536441863419846
v 1.0625 0.9451058547461932 1.0737590095815743
v 1.0625 0.9451058547461932 1.0737590095815743
v 0.5625 0.9451058547461932 1.0737590095815743
v 0.5625 0.9451058547461932 1.0737590095815743
vt 0 0
vt 0.125 0
vt 0.125 0
vt 0 0
vt -0.21875 0
vt 0 0
vt 0 0
vt -0.21875 0
vt 0.34375 0
vt 0.46875 0
vt 0.46875 0
vt 0.34375 0
vt 0.125 0
vt 0.34375 0
vt 0.34375 0
vt 0.125 0
vt 0.125 0.21875
vt 0 0.21875
vt 0 0
vt 0.125 0
vt 0.25 0
vt 0.125 0
vt 0.125 0.21875
vt 0.25 0.21875
vn 0 0 0
vn 0 0 0
vn 0 0 0
vn 0 0 0
vn 0 0.9238795325112868 -0.38268343236508967
vn 0 -0.9238795325112868 0.38268343236508967
usemtl m_1
f 57/169/43 58/170/43 59/171/43 60/172/43
f 61/173/44 57/174/44 60/175/44 62/176/44
f 63/177/45 61/178/45 62/179/45 64/180/45
f 58/181/46 63/182/46 64/183/46 59/184/46
f 64/185/47 62/186/47 60/187/47 59/188/47
f 58/189/48 57/190/48 61/191/48 63/192/48
o droplet_left
v 0.328125 0.15625 0.1875
v 0.265625 0.15625 0.1875
v 0.265625 0.46875 0.1875
v 0.328125 0.46875 0.1875
v 0.328125 0.15625 0.25
v 0.328125 0.46875 0.25
v 0.265625 0.15625 0.25
v 0.265625 0.46875 0.25
vt 0.015625 0.546875
vt 0.03125 0.546875
vt 0.03125 0.625
vt 0.015625 0.625
vt 0 0.546875
vt 0.015625 0.546875
vt 0.015625 0.625
vt 0 0.625
vt 0.046875 0.546875
vt 0.0625 0.546875
vt 0.0625 0.625
vt 0.046875 0.625
vt 0.03125 0.546875
vt 0.046875 0.546875
vt 0.046875 0.625
vt 0.03125 0.625
vt 0.03125 0.640625
vt 0.015625 0.640625
vt 0.015625 0.625
vt 0.03125 0.625
vt 0.046875 0.625
vt 0.03125 0.625
vt 0.03125 0.640625
vt 0.046875 0.640625
vn 0 0 -1
vn 1 0 0
vn 0 0 1
vn -1 0 0
vn 0 1 0
vn 0 -1 0
usemtl m_1
f 65/193/49 66/194/49 67/195/49 68/196/49
f 69/197/50 65/198/50 68/199/50 70/200/50
f 71/201/51 69/202/51 70/203/51 72/204/51
f 66/205/52 71/206/52 72/207/52 67/208/52
f 72/209/53 70/210/53 68/211/53 67/212/53
f 66/213/54 65/214/54 69/215/54 71/216/54
o droplet_left
v 0.359375 0.03125 0.15625
v 0.234375 0.03125 0.15625
v 0.234375 0.21875 0.15625
v 0.359375 0.21875 0.15625
v 0.359375 0.03125 0.28125
v 0.359375 0.21875 0.28125
v 0.234375 0.03125 0.28125
v 0.234375 0.21875 0.28125
vt 0.09375 0.546875
vt 0.125 0.546875
vt 0.125 0.59375
vt 0.09375 0.59375
vt 0.0625 0.546875
vt 0.09375 0.546875
vt 0.09375 0.59375
vt 0.0625 0.59375
vt 0.15625 0.546875
vt 0.1875 0.546875
vt 0.1875 0.59375
vt 0.15625 0.59375
vt 0.125 0.546875
vt 0.15625 0.546875
vt 0.15625 0.59375
vt 0.125 0.59375
vt 0.125 0.625
vt 0.09375 0.625
vt 0.09375 0.59375
vt 0.125 0.59375
vt 0.15625 0.59375
vt 0.125 0.59375
vt 0.125 0.625
vt 0.15625 0.625
vn 0 0 -1
vn 1 0 0
vn 0 0 1
vn -1 0 0
vn 0 1 0
vn 0 -1 0
usemtl m_1
f 73/217/55 74/218/55 75/219/55 76/220/55
f 77/221/56 73/222/56 76/223/56 78/224/56
f 79/225/57 77/226/57 78/227/57 80/228/57
f 74/229/58 79/230/58 80/231/58 75/232/58
f 80/233/59 78/234/59 76/235/59 75/236/59
f 74/237/60 73/238/60 77/239/60 79/240/60
o droplet_right
v 0.734375 0.15625 0.1875
v 0.671875 0.15625 0.1875
v 0.671875 0.46875 0.1875
v 0.734375 0.46875 0.1875
v 0.734375 0.15625 0.25
v 0.734375 0.46875 0.25
v 0.671875 0.15625 0.25
v 0.671875 0.46875 0.25
vt 0.015625 0.640625
vt 0.03125 0.640625
vt 0.03125 0.71875
vt 0.015625 0.71875
vt 0 0.640625
vt 0.015625 0.640625
vt 0.015625 0.71875
vt 0 0.71875
vt 0.046875 0.640625
vt 0.0625 0.640625
vt 0.0625 0.71875
vt 0.046875 0.71875
vt 0.03125 0.640625
vt 0.046875 0.640625
vt 0.046875 0.71875
vt 0.03125 0.71875
vt 0.03125 0.734375
vt 0.015625 0.734375
vt 0.015625 0.71875
vt 0.03125 0.71875
vt 0.046875 0.71875
vt 0.03125 0.71875
vt 0.03125 0.734375
vt 0.046875 0.734375
vn 0 0 -1
vn 1 0 0
vn 0 0 1
vn -1 0 0
vn 0 1 0
vn 0 -1 0
usemtl m_1
f 81/241/61 82/242/61 83/243/61 84/244/61
f 85/245/62 81/246/62 84/247/62 86/248/62
f 87/249/63 85/250/63 86/251/63 88/252/63
f 82/253/64 87/254/64 88/255/64 83/256/64
f 88/257/65 86/258/65 84/259/65 83/260/65
f 82/261/66 81/262/66 85/263/66 87/264/66
o droplet_right
v 0.765625 0.03125 0.15625
v 0.640625 0.03125 0.15625
v 0.640625 0.21875 0.15625
v 0.765625 0.21875 0.15625
v 0.765625 0.03125 0.28125
v 0.765625 0.21875 0.28125
v 0.640625 0.03125 0.28125
v 0.640625 0.21875 0.28125
vt 0.125 0.640625
vt 0.09375 0.640625
vt 0.09375 0.6875
vt 0.125 0.6875
vt 0.15625 0.640625
vt 0.125 0.640625
vt 0.125 0.6875
vt 0.15625 0.6875
vt 0.1875 0.640625
vt 0.15625 0.640625
vt 0.15625 0.6875
vt 0.1875 0.6875
vt 0.09375 0.640625
vt 0.0625 0.640625
vt 0.0625 0.6875
vt 0.09375 0.6875
vt 0.09375 0.71875
vt 0.125 0.71875
vt 0.125 0.6875
vt 0.09375 0.6875
vt 0.125 0.6875
vt 0.15625 0.6875
vt 0.15625 0.71875
vt 0.125 0.71875
vn 0 0 -1
vn 1 0 0
vn 0 0 1
vn -1 0 0
vn 0 1 0
vn 0 -1 0
usemtl m_1
f 89/265/67 90/266/67 91/267/67 92/268/67
f 93/269/68 89/270/68 92/271/68 94/272/68
f 95/273/69 93/274/69 94/275/69 96/276/69
f 90/277/70 95/278/70 96/279/70 91/280/70
f 96/281/71 94/282/71 92/283/71 91/284/71
f 90/285/72 89/286/72 93/287/72 95/288/72
o cube4
v 0.125 0 0.875
v 0.125 0.25 0.875
v 0.125 0.25 0.125
v 0.125 0 0.125
v 0.875 0.25 0.125
v 0.875 0 0.125
v 0.875 0.25 0.875
v 0.875 0 0.875
v 0.9375 0.3125 0.9375
v 0.9375 0.875 0.9375
v 0.0625 0.875 0.9375
v 0.0625 0.3125 0.9375
v 0.0625 0.25 0.875
v 0.9375 0.25 0.875
v 0.9375 0.9375 1
v 0.0625 0.9375 1
v 0.9375 0.3125 0.0625
v 0.9375 0.875 0.0625
v 0.9375 0.875 0.9375
v 0.9375 0.3125 0.9375
v 0.875 0.25 0.9375
v 0.875 0.25 0.0625
v 1 0.9375 0.0625
v 1 0.9375 0.9375
v 0.0625 0.3125 0.0625
v 0.0625 0.875 0.0625
v 0.9375 0.875 0.0625
v 0.9375 0.3125 0.0625
v 0.9375 0.25 0.125
v 0.0625 0.25 0.125
v 0.0625 0.9375 0
v 0.9375 0.9375 0
v 0.0625 0.3125 0.9375
v 0.0625 0.875 0.9375
v 0.0625 0.875 0.0625
v 0.0625 0.3125 0.0625
v 0.125 0.25 0.0625
v 0.125 0.25 0.9375
v 0 0.9375 0.9375
v 0 0.9375 0.0625
v 0.875 0 0.875
v 1 0 1
v 1 0.3125 1
v 0.875 0.3125 0.875
v 0.875 0 0.125
v 1 0 0
v 1 0.3125 0
v 0.875 0.3125 0.125
v 0.125 0 0.125
v 0 0 0
v 0 0.3125 0
v 0.125 0.3125 0.125
v 0.125 0 0.875
v 0 0 1
v 0 0.3125 1
v 0.125 0.3125 0.875
v 0.9375 0.3125 0.9375
v 0.0625 0.3125 0.9375
v 0.0625 0.875 0.9375
v 0.9375 0.875 0.9375
v 0.9375 0.25 0.875
v 0.0625 0.25 0.875
v 0.0625 0.9375 1
v 0.9375 0.9375 1
v 0.9375 0.3125 0.0625
v 0.9375 0.3125 0.9375
v 0.9375 0.875 0.9375
v 0.9375 0.875 0.0625
v 0.875 0.25 0.0625
v 0.875 0.25 0.9375
v 1 0.9375 0.9375
v 1 0.9375 0.0625
v 0.0625 0.3125 0.0625
v 0.9375 0.3125 0.0625
v 0.9375 0.875 0.0625
v 0.0625 0.875 0.0625
v 0.0625 0.25 0.125
v 0.9375 0.25 0.125
v 0.9375 0.9375 0
v 0.0625 0.9375 0
v 0.0625 0.3125 0.9375
v 0.0625 0.3125 0.0625
v 0.0625 0.875 0.0625
v 0.0625 0.875 0.9375
v 0.125 0.25 0.9375
v 0.125 0.25 0.0625
v 0 0.9375 0.0625
v 0 0.9375 0.9375
v 0.875 0 0.875
v 0.875 0.3125 0.875
v 1 0.3125 1
v 1 0 1
v 0.875 0 0.125
v 0.875 0.3125 0.125
v 1 0.3125 0
v 1 0 0
v 0.125 0 0.125
v 0.125 0.3125 0.125
v 0 0.3125 0
v 0 0 0
v 0.125 0 0.875
v 0.125 0.3125 0.875
v 0 0.3125 1
v 0 0 1
vt 0.9375 0.375
vt 0.9375 0.5
vt 0.5625 0.5
vt 0.5625 0.375
vt 0.9375 0.375
vt 0.9375 0.5
vt 0.5625 0.5
vt 0.5625 0.375
vt 0.9375 0.375
vt 0.9375 0.5
vt 0.5625 0.5
vt 0.5625 0.375
vt 0.9375 0.375
vt 0.9375 0.5
vt 0.5625 0.5
vt 0.5625 0.375
vt 0.5625 0
vt 0.9375 0
vt 0.9375 0.375
vt 0.5625 0.375
vt 0.5625 0.5625
vt 0.9375 0.5625
vt 0.9375 0.9375
vt 0.5625 0.9375
vt 0.46875 0.53125
vt 0.46875 0.8125
vt 0.03125 0.8125
vt 0.03125 0.53125
vt 0.03125 0.5
vt 0.46875 0.5
vt 0.46875 0.53125
vt 0.03125 0.53125
vt 0.03125 0.8125
vt 0.46875 0.8125
vt 0.46875 0.84375
vt 0.03125 0.84375
vt 0.46875 0.53125
vt 0.46875 0.8125
vt 0.03125 0.8125
vt 0.03125 0.53125
vt 0.03125 0.5
vt 0.46875 0.5
vt 0.46875 0.53125
vt 0.03125 0.53125
vt 0.03125 0.8125
vt 0.46875 0.8125
vt 0.46875 0.84375
vt 0.03125 0.84375
vt 0.46875 0.53125
vt 0.46875 0.8125
vt 0.03125 0.8125
vt 0.03125 0.53125
vt 0.03125 0.5
vt 0.46875 0.5
vt 0.46875 0.53125
vt 0.03125 0.53125
vt 0.03125 0.8125
vt 0.46875 0.8125
vt 0.46875 0.84375
vt 0.03125 0.84375
vt 0.46875 0.53125
vt 0.46875 0.8125
vt 0.03125 0.8125
vt 0.03125 0.53125
vt 0.03125 0.5
vt 0.46875 0.5
vt 0.46875 0.53125
vt 0.03125 0.53125
vt 0.03125 0.8125
vt 0.46875 0.8125
vt 0.46875 0.84375
vt 0.03125 0.84375
vt 0.90625 0.34375
vt 1 0.34375
vt 1 0.5
vt 0.90625 0.5
vt 0.90625 0.34375
vt 1 0.34375
vt 1 0.5
vt 0.90625 0.5
vt 0.90625 0.34375
vt 1 0.34375
vt 1 0.5
vt 0.90625 0.5
vt 0.90625 0.34375
vt 1 0.34375
vt 1 0.5
vt 0.90625 0.5
vt 0.46875 0.53125
vt 0.03125 0.53125
vt 0.03125 0.8125
vt 0.46875 0.8125
vt 0.03125 0.5
vt 0.03125 0.53125
vt 0.46875 0.53125
vt 0.46875 0.5
vt 0.03125 0.8125
vt 0.03125 0.84375
vt 0.46875 0.84375
vt 0.46875 0.8125
vt 0.46875 0.53125
vt 0.03125 0.53125
vt 0.03125 0.8125
vt 0.46875 0.8125
vt 0.03125 0.5
vt 0.03125 0.53125
vt 0.46875 0.53125
vt 0.46875 0.5
vt 0.03125 0.8125
vt 0.03125 0.84375
vt 0.46875 0.84375
vt 0.46875 0.8125
vt 0.46875 0.53125
vt 0.03125 0.53125
vt 0.03125 0.8125
vt 0.46875 0.8125
vt 0.03125 0.5
vt 0.03125 0.53125
vt 0.46875 0.53125
vt 0.46875 0.5
vt 0.03125 0.8125
vt 0.03125 0.84375
vt 0.46875 0.84375
vt 0.46875 0.8125
vt 0.46875 0.53125
vt 0.03125 0.53125
vt 0.03125 0.8125
vt 0.46875 0.8125
vt 0.03125 0.5
vt 0.03125 0.53125
vt 0.46875 0.53125
vt 0.46875 0.5
vt 0.03125 0.8125
vt 0.03125 0.84375
vt 0.46875 0.84375
vt 0.46875 0.8125
vt 0.90625 0.34375
vt 0.90625 0.5
vt 1 0.5
vt 1 0.34375
vt 0.90625 0.34375
vt 0.90625 0.5
vt 1 0.5
vt 1 0.34375
vt 0.90625 0.34375
vt 0.90625 0.5
vt 1 0.5
vt 1 0.34375
vt 0.90625 0.34375
vt 0.90625 0.5
vt 1 0.5
vt 1 0.34375
vn -1 0 0
vn 0 0 -1
vn 1 0 0
vn 0 0 1
vn 0 -1 0
vn 0 1 0
vn 0 0 1
vn 0 -0.7071067811865476 0.7071067811865476
vn 0 -0.7071067811865476 0.7071067811865476
vn 1 0 0
vn 0.7071067811865476 -0.7071067811865476 0
vn 0.7071067811865476 -0.7071067811865476 0
vn 0 0 -1
vn 0 -0.7071067811865476 -0.7071067811865476
vn 0 -0.7071067811865476 -0.7071067811865476
vn -1 0 0
vn -0.7071067811865476 -0.7071067811865476 0
vn -0.7071067811865476 -0.7071067811865476 0
vn -0.7071067811865476 0 0.7071067811865476
vn 0.7071067811865476 0 0.7071067811865476
vn 0.7071067811865476 0 -0.7071067811865476
vn -0.7071067811865476 0 -0.7071067811865476
vn 0 0 -1
vn 0 0.7071067811865476 -0.7071067811865476
vn 0 0.7071067811865476 -0.7071067811865476
vn -1 0 0
vn -0.7071067811865476 0.7071067811865476 0
vn -0.7071067811865476 0.7071067811865476 0
vn 0 0 1
vn 0 0.7071067811865476 0.7071067811865476
vn 0 0.7071067811865476 0.7071067811865476
vn 1 0 0
vn 0.7071067811865476 0.7071067811865476 0
vn 0.7071067811865476 0.7071067811865476 0
vn 0.7071067811865476 0 -0.7071067811865476
vn -0.7071067811865476 0 -0.7071067811865476
vn -0.7071067811865476 0 0.7071067811865476
vn 0.7071067811865476 0 0.7071067811865476
usemtl m_0
f 97/289/73 98/290/73 99/291/73 100/292/73
f 100/293/74 99/294/74 101/295/74 102/296/74
f 102/297/75 101/298/75 103/299/75 104/300/75
f 104/301/76 103/302/76 98/303/76 97/304/76
f 100/305/77 102/306/77 104/307/77 97/308/77
f 101/309/78 99/310/78 98/311/78 103/312/78
f 105/313/79 106/314/79 107/315/79 108/316/79
f 105/317/80 108/318/80 109/319/80 110/320/80
f 107/321/81 106/322/81 111/323/81 112/324/81
f 113/325/82 114/326/82 115/327/82 116/328/82
f 113/329/83 116/330/83 117/331/83 118/332/83
f 115/333/84 114/334/84 119/335/84 120/336/84
f 121/337/85 122/338/85 123/339/85 124/340/85
f 121/341/86 124/342/86 125/343/86 126/344/86
f 123/345/87 122/346/87 127/347/87 128/348/87
f 129/349/88 130/350/88 131/351/88 132/352/88
f 129/353/89 132/354/89 133/355/89 134/356/89
f 131/357/90 130/358/90 135/359/90 136/360/90
f 137/361/91 138/362/91 139/363/91 140/364/91
f 141/365/92 142/366/92 143/367/92 144/368/92
f 145/369/93 146/370/93 147/371/93 148/372/93
f 149/373/94 150/374/94 151/375/94 152/376/94
f 153/377/95 154/378/95 155/379/95 156/380/95
f 153/381/96 157/382/96 158/383/96 154/384/96
f 155/385/97 159/386/97 160/387/97 156/388/97
f 161/389/98 162/390/98 163/391/98 164/392/98
f 161/393/99 165/394/99 166/395/99 162/396/99
f 163/397/100 167/398/100 168/399/100 164/400/100
f 169/401/101 170/402/101 171/403/101 172/404/101
f 169/405/102 173/406/102 174/407/102 170/408/102
f 171/409/103 175/410/103 176/411/103 172/412/103
f 177/413/104 178/414/104 179/415/104 180/416/104
f 177/417/105 181/418/105 182/419/105 178/420/105
f 179/421/106 183/422/106 184/423/106 180/424/106
f 185/425/107 186/426/107 187/427/107 188/428/107
f 189/429/108 190/430/108 191/431/108 192/432/108
f 193/433/109 194/434/109 195/435/109 196/436/109
f 197/437/110 198/438/110 199/439/110 200/440/110
o neck
v 0.6875 0.0625 0.34375
v 0.3125 0.0625 0.34375
v 0.3125 0.4375 0.34375
v 0.6875 0.4375 0.34375
v 0.6875 0.0625 0.71875
v 0.6875 0.4375 0.71875
v 0.3125 0.0625 0.71875
v 0.3125 0.4375 0.71875
vt 0.8125 0.765625
vt 0.90625 0.765625
vt 0.90625 0.90625
vt 0.8125 0.90625
vt 0.71875 0.765625
vt 0.8125 0.765625
vt 0.8125 0.90625
vt 0.71875 0.90625
vt 0.625 0.765625
vt 0.71875 0.765625
vt 0.71875 0.90625
vt 0.625 0.90625
vt 0.90625 0.765625
vt 1 0.765625
vt 1 0.90625
vt 0.90625 0.90625
vt 0.71875 0.90625
vt 0.8125 0.90625
vt 0.8125 1
vt 0.71875 1
vt 0.8125 0.90625
vt 0.90625 0.90625
vt 0.90625 1
vt 0.8125 1
vn 0 0 -1
vn 1 0 0
vn 0 0 1
vn -1 0 0
vn 0 1 0
vn 0 -1 0
usemtl m_1
f 201/441/111 202/442/111 203/443/111 204/444/111
f 205/445/112 201/446/112 204/447/112 206/448/112
f 207/449/113 205/450/113 206/451/113 208/452/113
f 202/453/114 207/454/114 208/455/114 203/456/114
f 208/457/115 206/458/115 204/459/115 203/460/115
f 202/461/116 201/462/116 205/463/116 207/464/116